<svg version="1.2" xmlns="http://www.w3.org/2000/svg" viewBox="0 0 800 800" width="128" height="128">
	<style>
		.s0 { fill: #e5e5e5 } 
	</style>
	<g id="Layer 1">
		<path class="s0" d="m20.5 400.02q0 62.24 18.97 119.93 18.98 57.68 54.65 104.74 35.67 47.06 81.97 81.97 46.3 34.92 104.75 54.65 58.44 19.74 119.16 18.98 62.24 0 119.93-18.98 57.68-18.97 104.74-54.65 47.06-35.67 81.21-81.97 34.16-46.3 54.65-104.74 20.5-58.45 18.98-119.93v-94.88l-189.75 189.76h78.17q-25.8 72.86-84.25 122.2-58.44 49.33-135.86 63v-232.26h47.06q19.73 0 33.4-13.66 13.66-13.67 14.42-34.16 0.76-20.49-14.42-33.4-15.18-12.9-33.4-13.66h-47.06v-56.16q41.75-14.43 68.31-50.86 26.57-36.43 26.57-82.73 0-53.13-35.68-93.36-35.67-40.23-88.04-47.06-9.87-2.27-18.98-2.27-9.11 0-18.97 2.27-52.37 7.59-88.05 47.06-35.67 39.47-34.91 93.36 0 45.54 25.8 81.97 25.81 36.44 69.07 51.62v56.16h-47.81q-19.74 0-33.4 13.66-13.66 13.67-13.66 33.4 0 19.74 13.66 34.16 13.66 14.42 33.4 13.66h47.81v232.26q-77.42-12.91-135.86-63-58.44-50.1-85.01-122.2h78.18l-189.75-189.76zm332.44-236.81q0-19.73 13.67-33.39 13.66-13.67 33.39-14.42 19.74-0.76 33.4 14.42 13.66 15.18 14.42 33.39 0.76 18.22-14.42 33.4-15.18 15.18-33.4 13.66-18.21-1.52-33.39-13.66-15.18-12.14-13.67-33.4z"/>
	</g>
</svg>